<svg width="40" height="40" viewBox="0 0 40 40" fill="none" xmlns="http://www.w3.org/2000/svg">
<path d="M20.0003 11C25.3924 11 29.8784 14.8798 30.8189 20C29.8784 25.1202 25.3924 29 20.0003 29C14.6081 29 10.1222 25.1202 9.18164 20C10.1222 14.8798 14.6081 11 20.0003 11ZM20.0003 27C24.2359 27 27.8603 24.052 28.7777 20C27.8603 15.948 24.2359 13 20.0003 13C15.7646 13 12.1402 15.948 11.2228 20C12.1402 24.052 15.7646 27 20.0003 27ZM20.0003 24.5C17.515 24.5 15.5003 22.4853 15.5003 20C15.5003 17.5147 17.515 15.5 20.0003 15.5C22.4855 15.5 24.5003 17.5147 24.5003 20C24.5003 22.4853 22.4855 24.5 20.0003 24.5ZM20.0003 22.5C21.381 22.5 22.5003 21.3807 22.5003 20C22.5003 18.6193 21.381 17.5 20.0003 17.5C18.6196 17.5 17.5003 18.6193 17.5003 20C17.5003 21.3807 18.6196 22.5 20.0003 22.5Z" fill="#999C9E"/>
</svg>
