<svg width="40" height="40" viewBox="0 0 40 40" fill="none" xmlns="http://www.w3.org/2000/svg">
<g clip-path="url(#clip0_2013_821)">
<path d="M19 10C23.968 10 28 14.032 28 19C28 23.968 23.968 28 19 28C14.032 28 10 23.968 10 19C10 14.032 14.032 10 19 10ZM19 26C22.8675 26 26 22.8675 26 19C26 15.1325 22.8675 12 19 12C15.1325 12 12 15.1325 12 19C12 22.8675 15.1325 26 19 26ZM27.4853 26.0711L30.3137 28.8995L28.8995 30.3137L26.0711 27.4853L27.4853 26.0711Z" fill="#999C9E"/>
</g>
<defs>
<clipPath id="clip0_2013_821">
<rect width="40" height="40" rx="12" fill="white"/>
</clipPath>
</defs>
</svg>
